<?xml version="1.0" encoding="utf-8"?>
<!-- Generator: Adobe Illustrator 26.5.1, SVG Export Plug-In . SVG Version: 6.00 Build 0)  -->
<svg version="1.1" id="Warstwa_1" xmlns="http://www.w3.org/2000/svg" xmlns:xlink="http://www.w3.org/1999/xlink" x="0px" y="0px"
	 width="32px" height="32px" viewBox="0 0 32 32" style="enable-background:new 0 0 32 32;" xml:space="preserve">
<style type="text/css">
	.st0{fill:#FFFFFF;}
</style>
<path class="st0" d="M10.5,15.6c-3.3,0-6-3.1-6-6.8S7.2,2,10.5,2s6,3.1,6,6.8S13.8,15.6,10.5,15.6z M10.5,4C8.2,4,6.4,6.2,6.4,8.9
	s1.9,4.9,4.1,4.9s4.1-2.2,4.1-4.9S12.7,4,10.5,4z M20.7,22.4c-0.1-0.2-3.1-5.5-10.2-5.5S0.2,22.1,0.1,22.4L0,22.6V30h20.8v-7.4
	L20.7,22.4z M18.6,27.6H2.4v-4.4c0.6-0.8,2.6-3.5,6.8-4l0.8,0.9l-1.1,4.4l1.5,2l1.5-1.9l-1.1-4.4l0.8-0.9c4.1,0.5,6.1,3.2,6.7,4v4.2
	h0.3V27.6z"/>
</svg>
