<?xml version="1.0" encoding="utf-8"?>
<!-- Generator: Adobe Illustrator 26.5.1, SVG Export Plug-In . SVG Version: 6.00 Build 0)  -->
<svg version="1.1" id="Warstwa_1" xmlns="http://www.w3.org/2000/svg" xmlns:xlink="http://www.w3.org/1999/xlink" x="0px" y="0px"
	 width="32px" height="32px" viewBox="0 0 32 32" style="enable-background:new 0 0 32 32;" xml:space="preserve">
<path d="M28,27.7H0V4.3h28V27.7z M2.1,25.6H26V6.4H2.1V25.6z M6.4,21.3v-0.9l1.2-1c2.8-2.7,4-4,4-5.8c0-1.2-0.5-2.1-2.2-2.1
	c-1,0-1.8,0.5-2.3,0.9l-0.5-1c0.8-0.6,1.8-1.2,3.1-1.2c2.3,0,3.3,1.7,3.3,3.2c0,2.1-1.4,3.6-3.9,5.9l-0.8,0.8l0,0h4.9v1.3H6.4
	C6.4,21.5,6.4,21.3,6.4,21.3z M20.3,21.5l-0.1-1l0,0c-0.4,0.6-1.3,1.2-2.4,1.2c-1.7,0-2.4-1.2-2.4-2.2c0-1.9,1.7-3,4.8-3v-0.3
	c0-0.6-0.3-1.8-1.8-1.8c-0.6,0-1.5,0.3-2.1,0.6L16,14c0.6-0.4,1.7-0.6,2.6-0.6c2.4,0,3,1.7,3,3.2v3c0,0.6,0,1.3,0.1,1.9H20.3z
	 M20.2,17.5c-1.5,0-3.3,0.3-3.3,1.7c0,0.9,0.6,1.3,1.3,1.3c1,0,1.7-0.6,1.9-1.3c0-0.1,0.1-0.3,0.1-0.4V17.5z"/>
</svg>
