<?xml version="1.0" encoding="utf-8"?>
<!-- Generator: Adobe Illustrator 26.5.1, SVG Export Plug-In . SVG Version: 6.00 Build 0)  -->
<svg version="1.1" id="Warstwa_1" xmlns="http://www.w3.org/2000/svg" xmlns:xlink="http://www.w3.org/1999/xlink" x="0px" y="0px"
	 width="32px" height="32px" viewBox="0 0 32 32" style="enable-background:new 0 0 32 32;" xml:space="preserve">
<path d="M29.4,27.5H0v-2.4h6.4v-6.7H0V16h6.4V4.5h16.7V16h6.3v2.4h-6.3v6.7h6.3C29.4,25.1,29.4,27.5,29.4,27.5z M8.8,25.1h11.8V6.9
	H8.8V25.1z M16.4,18.3c-0.7,0-1.2-0.5-1.2-1.2V16c0-0.7,0.5-1.2,1.2-1.2h2c0.7,0,1.2,0.5,1.2,1.2c0,0.7-0.5,1.2-1.2,1.2h-0.8
	C17.6,17.8,17.1,18.3,16.4,18.3z M17.6,10.9h-5.8c-0.7,0-1.2-0.5-1.2-1.2s0.5-1.2,1.2-1.2h5.8c0.7,0,1.2,0.5,1.2,1.2
	S18.3,10.9,17.6,10.9z"/>
</svg>
